#!OML:ASF F:\VICON\USERDATA\INSTALL\rory3\rory3.ASF
:FULLY-SPECIFIED
:DEGREES
136
root 0.985584 17.8579 -15.6931 7.02419 -3.80055 0.568111
lowerback 5.89366 -0.251213 -1.69181
upperback 0.118805 -0.368633 2.4986
thorax -3.15696 -0.140461 3.56736
lowerneck -16.0824 -3.70234 -10.3413
upperneck 29.3828 -3.70596 4.55243
head 12.7612 -2.21137 2.94491
rclavicle 1.98785e-016 3.10104e-014
rhumerus -33.1283 -9.65994 -78.9958
rradius 34.8842
rwrist 2.58785
rhand -11.6942 15.2381
rfingers 7.12502
rthumb 14.3517 -14.2459
lclavicle 1.98785e-016 3.10104e-014
lhumerus -32.4527 9.21397 85.1904
lradius 33.0962
lwrist -5.69462
lhand -11.3119 30.31
lfingers 7.12502
lthumb 14.72 59.7674
rfemur -12.5048 5.80244 21.015
rtibia 20.8152
rfoot -9.5262 -9.88801
rtoes 3.82125
lfemur -12.9589 -3.23697 -22.0169
ltibia 19.9409
lfoot -10.4814 6.1643
ltoes 0.935834
137
root 0.989006 17.8572 -15.6915 7.03041 -3.7482 0.569284
lowerback 5.94748 -0.272411 -1.68185
upperback 0.174466 -0.396448 2.52087
thorax -3.12744 -0.155449 3.58737
lowerneck -16.1383 -3.71622 -10.3604
upperneck 29.3241 -3.71278 4.55493
head 12.7502 -2.2142 2.94648
rclavicle -1.93815e-014 -1.59028e-014
rhumerus -33.1586 -9.47363 -79.0823
rradius 35.1959
rwrist 2.49638
rhand -11.7952 15.2277
rfingers 7.12502
rthumb 14.2543 -14.2631
lclavicle -1.93815e-014 -1.59028e-014
lhumerus -32.3526 9.18833 85.2521
lradius 33.1351
lwrist -5.55923
lhand -11.5046 28.8575
lfingers 7.12502
lthumb 14.5344 58.3284
rfemur -12.5432 5.77156 21.0095
rtibia 20.8753
rfoot -9.52074 -9.93162
rtoes 3.79265
lfemur -12.9744 -3.15447 -22.026
ltibia 19.9983
lfoot -10.6485 6.04824
ltoes 0.700174
138
root 0.98984 17.8537 -15.6921 7.04528 -3.74277 0.458313
lowerback 6.05728 -0.290852 -1.58397
upperback 0.232889 -0.414053 2.5673
thorax -3.12766 -0.166065 3.58258
lowerneck -16.3056 -3.72906 -10.3556
upperneck 29.3324 -3.70044 4.51502
head 12.787 -2.21162 2.93095
rclavicle 9.64106e-015 6.36111e-015
rhumerus -33.0992 -9.27875 -79.2102
rradius 35.4433
rwrist 2.39317
rhand -11.5866 15.5152
rfingers 7.12502
rthumb 14.4554 -13.9613
lclavicle 9.64106e-015 6.36111e-015
lhumerus -32.2508 9.16214 85.2696
lradius 33.2304
lwrist -5.57111
lhand -11.1967 28.9954
lfingers 7.12502
lthumb 14.831 58.4446
rfemur -12.5737 5.82506 21.1302
rtibia 20.9318
rfoot -9.57317 -9.97516
rtoes 3.91505
lfemur -13.0144 -3.12046 -21.9056
ltibia 20.0664
lfoot -10.7685 6.06561
ltoes 0.205459
139
root 0.991646 17.8516 -15.6906 7.1194 -3.80667 0.465528
lowerback 6.03044 -0.271833 -1.57644
upperback 0.281421 -0.389301 2.54925
thorax -3.06438 -0.155488 3.55656
lowerneck -16.3853 -3.75127 -10.3136
upperneck 29.2917 -3.74109 4.53387
head 12.7898 -2.22056 2.92325
rclavicle -1.80894e-014 -1.19271e-014
rhumerus -32.9879 -9.18993 -79.3335
rradius 35.5259
rwrist 2.29905
rhand -11.5125 15.4676
rfingers 7.12502
rthumb 14.5267 -14.0038
lclavicle -1.80894e-014 -1.19271e-014
lhumerus -32.1579 9.09998 85.2697
lradius 33.3211
lwrist -5.52908
lhand -11.3165 28.6723
lfingers 7.12502
lthumb 14.7156 58.13
rfemur -12.7005 5.85978 21.1043
rtibia 21.0467
rfoot -9.70324 -9.9459
rtoes 3.68383
lfemur -13.1482 -3.17084 -21.9188
ltibia 20.1693
lfoot -10.8114 6.16203
ltoes 0.107351
140
root 0.992262 17.8523 -15.6905 7.21416 -3.85865 0.504409
lowerback 5.96695 -0.199786 -1.59191
upperback 0.298748 -0.296294 2.48472
thorax -3.01788 -0.110218 3.48935
lowerneck -16.3376 -3.79704 -10.2073
upperneck 29.239 -3.86411 4.59686
head 12.7669 -2.25395 2.9093
rclavicle -1.94809e-014 -3.97569e-015
rhumerus -33.0381 -9.22026 -79.4776
rradius 35.7765
rwrist 2.07117
rhand -11.6833 14.6811
rfingers 7.12502
rthumb 14.3621 -14.802
lclavicle -1.94809e-014 -3.97569e-015
lhumerus -32.1101 8.8323 85.2903
lradius 33.5733
lwrist -5.67431
lhand -11.1598 28.9928
lfingers 7.12502
lthumb 14.8666 58.4394
rfemur -12.8663 5.86162 21.0428
rtibia 21.1489
rfoot -9.78836 -9.9097
rtoes 3.56459
lfemur -13.2959 -3.13913 -21.9627
ltibia 20.2265
lfoot -10.7571 6.13067
ltoes 0.350917
141
root 0.993521 17.8497 -15.6933 7.27205 -3.80684 0.581736
lowerback 5.9761 -0.146621 -1.58895
upperback 0.354409 -0.228821 2.39051
thorax -2.97065 -0.07854 3.3836
lowerneck -16.5348 -3.87759 -10.0863
upperneck 29.2988 -4.00853 4.6348
head 12.843 -2.29747 2.87972
rclavicle 5.66536e-015 3.89618e-014
rhumerus -33.1046 -9.23768 -79.6524
rradius 36.1961
rwrist 1.8696
rhand -11.7196 14.0975
rfingers 7.12502
rthumb 14.3272 -15.3882
lclavicle 5.66536e-015 3.89618e-014
lhumerus -31.9757 8.48434 85.3317
lradius 33.8754
lwrist -6.0197
lhand -10.6727 30.7146
lfingers 7.12502
lthumb 15.3358 60.1259
rfemur -13.0445 5.67091 20.9559
rtibia 21.3199
rfoot -9.84553 -9.82076
rtoes 3.62716
lfemur -13.3811 -3.14425 -22.0425
ltibia 20.2379
lfoot -10.7126 6.04073
ltoes 0.837945
142
root 0.997877 17.8529 -15.6976 7.29809 -3.81028 0.641252
lowerback 6.14546 -0.139518 -1.6347
upperback 0.350895 -0.223431 2.38598
thorax -3.06949 -0.07381 3.40603
lowerneck -16.6495 -3.87261 -10.0805
upperneck 29.399 -3.98635 4.61565
head 12.906 -2.28993 2.87587
rclavicle -4.67144e-015 6.36111e-015
rhumerus -33.1497 -9.05998 -79.7311
rradius 36.4052
rwrist 1.87748
rhand -11.687 14.3712
rfingers 7.12502
rthumb 14.3586 -15.1123
lclavicle -4.67144e-015 6.36111e-015
lhumerus -32.0064 8.29533 85.4424
lradius 34.1463
lwrist -5.9762
lhand -10.5061 32.9332
lfingers 7.12502
lthumb 15.4963 62.3321
rfemur -13.1941 5.72329 20.8663
rtibia 21.4986
rfoot -9.81397 -9.87147
rtoes 3.91675
lfemur -13.4381 -3.1833 -22.1243
ltibia 20.2686
lfoot -10.6854 6.08019
ltoes 1.14822
143
root 1.00138 17.8499 -15.7045 7.29114 -3.9777 0.685035
lowerback 6.34756 -0.0892766 -1.73907
upperback 0.390103 -0.164314 2.42274
thorax -3.14614 -0.0420482 3.49985
lowerneck -16.6082 -3.83282 -10.1409
upperneck 29.2761 -3.90245 4.59065
head 12.8404 -2.26098 2.88807
rclavicle 8.74653e-015 2.8625e-014
rhumerus -33.1145 -8.86392 -79.7791
rradius 36.6067
rwrist 1.94677
rhand -11.8679 14.4473
rfingers 7.12502
rthumb 14.1843 -15.0484
lclavicle 8.74653e-015 2.8625e-014
lhumerus -32.0874 8.28972 85.5133
lradius 34.1442
lwrist -5.24678
lhand -11.5443 29.9774
lfingers 7.12502
lthumb 14.4961 59.451
rfemur -13.356 5.78693 20.7877
rtibia 21.6941
rfoot -9.77935 -9.72621
rtoes 4.24905
lfemur -13.4972 -3.16534 -22.2015
ltibia 20.339
lfoot -10.6919 6.2528
ltoes 1.08002
144
root 1.00363 17.846 -15.7102 7.33538 -4.10102 0.631832
lowerback 6.45261 -0.0875307 -1.72083
upperback 0.443627 -0.160401 2.47113
thorax -3.14988 -0.0406839 3.54013
lowerneck -16.51 -3.76529 -10.207
upperneck 29.0829 -3.78768 4.58366
head 12.7317 -2.216 2.91229
rclavicle -8.54774e-015 -8.74653e-015
rhumerus -33.0663 -8.53971 -79.9473
rradius 36.9646
rwrist 1.96888
rhand -12.0067 14.225
rfingers 7.12502
rthumb 14.0505 -15.28
lclavicle -8.54774e-015 -8.74653e-015
lhumerus -32.1512 8.31344 85.5428
lradius 34.3718
lwrist -4.92913
lhand -11.9748 28.8794
lfingers 7.12502
lthumb 14.0812 58.3823
rfemur -13.5257 5.83634 20.8214
rtibia 21.8411
rfoot -9.86916 -9.63054
rtoes 4.08667
lfemur -13.5871 -3.11812 -22.1513
ltibia 20.3843
lfoot -10.7153 6.31792
ltoes 1.02464
145
root 1.0062 17.8421 -15.715 7.41555 -4.00076 0.607012
lowerback 6.54258 -0.165305 -1.7159
upperback 0.412654 -0.261728 2.53376
thorax -3.22463 -0.0892843 3.61303
lowerneck -16.2566 -3.71009 -10.3557
upperneck 28.9552 -3.71159 4.65587
head 12.6251 -2.19003 2.97737
rclavicle -6.55989e-015 -8.74653e-015
rhumerus -33.199 -8.0401 -80.1195
rradius 37.4053
rwrist 1.7336
rhand -11.9382 14.6683
rfingers 7.12502
rthumb 14.1165 -14.8322
lclavicle -6.55989e-015 -8.74653e-015
lhumerus -32.2688 8.42362 85.5439
lradius 34.5968
lwrist -4.95113
lhand -11.845 28.9581
lfingers 7.12502
lthumb 14.2064 58.4523
rfemur -13.722 5.73538 20.8511
rtibia 22.0237
rfoot -10.011 -9.67738
rtoes 3.53672
lfemur -13.7051 -3.14789 -22.1105
ltibia 20.4575
lfoot -10.7813 6.20463
ltoes 1.08998
146
root 1.00733 17.8426 -15.719 7.48088 -3.80207 0.667665
lowerback 6.68194 -0.239731 -1.80578
upperback 0.384446 -0.366192 2.58778
thorax -3.32327 -0.137681 3.73201
lowerneck -16.1926 -3.70981 -10.4046
upperneck 28.8922 -3.70105 4.65166
head 12.5867 -2.19072 2.98494
rclavicle -7.15625e-015 1.82882e-014
rhumerus -33.3554 -7.69839 -80.1824
rradius 37.7798
rwrist 1.4992
rhand -11.8083 15.4509
rfingers 7.12502
rthumb 14.2417 -14.0408
lclavicle -7.15625e-015 1.82882e-014
lhumerus -32.3097 8.42071 85.6296
lradius 34.8182
lwrist -4.77479
lhand -11.8464 29.0352
lfingers 7.12502
lthumb 14.205 58.5294
rfemur -13.8936 5.62905 20.8065
rtibia 22.2074
rfoot -10.0386 -9.81235
rtoes 3.52555
lfemur -13.8426 -3.21295 -22.1476
ltibia 20.5472
lfoot -10.7758 6.03852
ltoes 1.57244
147
root 1.00899 17.8421 -15.7233 7.55889 -3.67267 0.731988
lowerback 6.88973 -0.301892 -1.90273
upperback 0.333708 -0.454996 2.65002
thorax -3.48433 -0.176588 3.86398
lowerneck -16.2874 -3.65842 -10.3655
upperneck 28.8948 -3.59056 4.5346
head 12.5944 -2.15158 2.94974
rclavicle -1.19271e-015 -8.74653e-015
rhumerus -33.4106 -7.40254 -80.1921
rradius 38.0244
rwrist 1.37378
rhand -11.9514 15.8823
rfingers 7.12502
rthumb 14.1039 -13.619
lclavicle -1.19271e-015 -8.74653e-015
lhumerus -32.4403 8.37775 85.7869
lradius 34.9748
lwrist -3.992
lhand -13.2059 27.4856
lfingers 7.12502
lthumb 12.8947 57.0672
rfemur -14.1035 5.53956 20.7417
rtibia 22.4084
rfoot -10.0184 -9.90654
rtoes 3.25799
lfemur -14.087 -3.27309 -22.208
ltibia 20.6728
lfoot -10.7096 5.99122
ltoes 1.08052
148
root 1.0152 17.8389 -15.7321 7.76221 -3.68168 0.774547
lowerback 6.95635 -0.330433 -1.95319
upperback 0.243661 -0.494682 2.69711
thorax -3.61119 -0.19173 3.94791
lowerneck -16.15 -3.59134 -10.3817
upperneck 28.8493 -3.47738 4.45024
head 12.5362 -2.11475 2.93775
rclavicle 2.0276e-014 3.18055e-014
rhumerus -33.5415 -7.04964 -80.2291
rradius 38.4055
rwrist 1.26657
rhand -12.1663 15.8668
rfingers 7.12502
rthumb 13.8968 -13.6489
lclavicle 2.0276e-014 3.18055e-014
lhumerus -32.6563 8.2801 85.896
lradius 35.19
lwrist -3.3397
lhand -14.1619 25.9445
lfingers 7.12502
lthumb 11.973 55.5821
rfemur -14.501 5.47404 20.6436
rtibia 22.6206
rfoot -10.0544 -9.87764
rtoes 3.06114
lfemur -14.5234 -3.33145 -22.2633
ltibia 20.8972
lfoot -10.7544 6.08522
ltoes 0.535608
